<svg xmlns="http://www.w3.org/2000/svg" width="800" height="520" viewBox="0 0 800 520" fill="none">
  <rect width="800" height="520" rx="24" fill="#0b0b0c"/>
  <g transform="translate(48,48)">
    <rect x="0" y="0" width="704" height="84" rx="14" fill="#111316" stroke="#1f2937"/>
    <rect x="20" y="26" width="120" height="32" rx="8" fill="#111827" stroke="#1f2937"/>
    <rect x="160" y="26" width="200" height="32" rx="8" fill="#111827" stroke="#1f2937"/>
    <rect x="372" y="26" width="120" height="32" rx="8" fill="#111827" stroke="#1f2937"/>
  </g>
  <g transform="translate(48,156)">
    <rect x="0" y="0" width="336" height="200" rx="16" fill="#0f172a" stroke="#1f2937"/>
    <rect x="20" y="20" width="296" height="16" rx="8" fill="#60A5FA"/>
    <rect x="20" y="56" width="256" height="12" rx="6" fill="#93C5FD"/>
    <rect x="20" y="80" width="220" height="12" rx="6" fill="#93C5FD"/>
    <rect x="20" y="104" width="170" height="12" rx="6" fill="#93C5FD"/>
  </g>
  <g transform="translate(416,156)">
    <rect x="0" y="0" width="336" height="200" rx="16" fill="#0f172a" stroke="#1f2937"/>
    <rect x="20" y="20" width="168" height="12" rx="6" fill="#10B981"/>
    <rect x="20" y="44" width="236" height="12" rx="6" fill="#34D399"/>
    <rect x="20" y="68" width="200" height="12" rx="6" fill="#34D399"/>
    <rect x="20" y="92" width="140" height="12" rx="6" fill="#34D399"/>
  </g>
  <g transform="translate(48,372)">
    <rect x="0" y="0" width="704" height="100" rx="16" fill="#0f172a" stroke="#1f2937"/>
    <rect x="20" y="28" width="280" height="16" rx="8" fill="#F59E0B"/>
    <rect x="20" y="58" width="220" height="10" rx="5" fill="#FBBF24"/>
  </g>
</svg>

